<?xml version="1.0" encoding="UTF-8"?>
<svg id="Layer_1" data-name="Layer 1" xmlns="http://www.w3.org/2000/svg" viewBox="0 0 397.41 334.67">
  <defs>
    <style>
      .cls-1, .cls-2, .cls-3, .cls-4, .cls-5 {
        stroke-width: 0px;
      }

      .cls-2 {
        fill: #fff;
      }

      .cls-3 {
        fill: #0b0b0b;
      }

      .cls-4 {
        fill: #090909;
      }

      .cls-5 {
        fill: #0a0a0a;
      }
    </style>
  </defs>
  <path class="cls-1" d="M204.03,326.5c-14.47.09-30.51-.58-46.53-1.83-20.79-1.62-41.45-4.35-61.99-8.01-24.69-4.4-49.06-10.22-73.26-16.78-1.18-.32-2.33-.73-3.49-1.08-3.1-.93-5.06-3.15-6.47-5.9-3.15-6.16-4.87-12.79-6.04-19.56-2.25-13.08-1.65-26.18.08-39.25,2.12-16.05,5.6-31.8,11.77-46.83,7.53-18.34,17.32-35.38,30.14-50.59,5.77-6.85,12.52-12.68,19.46-18.3.86-.7,1.77-1.38,2.95-1.57.7-.11,1.65.45,2.07-.37.32-.63.3-1.46.36-2.2.92-12.08,2.54-24.07,5.29-35.88,3.27-14.05,7.87-27.61,15.42-40.02,5.28-8.67,11.74-16.27,20.3-21.93,10.12-6.7,21.23-9.25,33.24-7.89,12.32,1.39,23.27,6.38,33.55,13.02,9.75,6.3,18.4,13.92,26.41,22.3.39.41.8.8,1.15,1.24.69.86,1.29.8,2.08.06,1.64-1.54,3.33-3.04,5.05-4.49,7.23-6.07,15.01-11.28,23.79-14.85,11.76-4.77,23.73-6.25,35.99-1.93,10.31,3.64,18.11,10.5,24.35,19.24,5.78,8.09,9.71,17.08,12.63,26.56,3.76,12.18,5.56,24.68,6.38,37.36.05.74-.04,1.41.74,1.96,5.51,3.89,10.86,7.98,15.76,12.63,9.52,9.06,17.29,19.51,24.18,30.63,10.34,16.67,18.46,34.36,23.71,53.29,3.22,11.59,5.39,23.4,7.04,35.31,1.24,8.93,2.3,17.87,2.46,26.89.17,9.31-.39,18.57-2.54,27.67-1.33,5.63-4.46,9.86-9.97,12.07-.69.28-1.42.51-2.16.63-12.79,2.09-25.57,4.18-38.36,6.23-25.6,4.09-51.28,7.55-77.11,9.71-18.91,1.58-37.85,2.49-58.42,2.44Z"/>
  <path class="cls-2" d="M72.26,124.35c0,2.81,0,5.03,0,7.25-.02,4.13-.06,8.26-.07,12.39,0,.65,0,1.33.13,1.96.4,1.89,1.98,3.12,3.84,3.05,1.68-.06,3.15-1.36,3.49-3.13.09-.46.1-.93.08-1.4-.33-14.47.34-28.9,2.2-43.25,2.34-18.04,6.34-35.65,14.46-52.1,3.68-7.45,8.21-14.32,14.14-20.21,7.75-7.7,16.95-12.32,27.91-13.16,5.48-.42,10.87.32,16.16,1.76,9.08,2.47,17.26,6.83,24.94,12.15,8.99,6.23,17,13.58,24.62,21.68-1.57,1.74-3.09,3.38-4.56,5.06-.86.99-1.78,1.96-2.45,3.07-.99,1.63-.64,3.43.68,4.61,1.32,1.19,3.11,1.3,4.68.28,1.05-.68,1.72-1.72,2.51-2.64,8.4-9.86,17.84-18.52,29.11-25.03,6.31-3.64,12.99-6.3,20.26-7.36,13.26-1.94,24.44,2.16,33.75,11.62,6.08,6.18,10.34,13.55,13.62,21.51,5.04,12.25,7.59,25.09,8.89,38.24,1.4,14.07,1.08,28.11-.19,42.15-.08.83-.08,1.7.05,2.52.27,1.6,1.48,2.75,2.97,2.97,1.59.24,3.15-.64,3.88-2.19.41-.87.47-1.81.55-2.74.73-7.66,1.19-15.34,1.15-23.04,0-.73-.15-1.49.24-2.33,1.13-.06,1.77.85,2.51,1.45,7.76,6.32,14.58,13.54,20.63,21.49,14.58,19.15,25.41,40.24,32.42,63.29,3.81,12.52,6.06,25.36,7.91,38.28,1.63,11.35,2.73,22.73,2.2,34.22-.24,5.36-.91,10.66-1.97,15.91-.11.55-.26,1.1-.42,1.64-1,3.43-2.99,5.6-6.76,6.22-12.05,1.97-24.05,4.16-36.09,6.18-13.34,2.24-26.72,4.19-40.14,5.86-17.99,2.25-36.02,3.99-54.12,5.04-19.61,1.14-39.22,1.4-58.85.79-19.53-.61-38.99-2.22-58.39-4.66-34.99-4.4-69.41-11.63-103.52-20.48-1.36-.35-2.69-.81-4.04-1.17-1.38-.36-1.84-1.58-2.35-2.63-1.1-2.28-1.86-4.71-2.52-7.16-3.65-13.5-4.19-27.22-2.75-41.05,1.81-17.43,5.23-34.53,11.86-50.82,7.55-18.55,17.44-35.75,30.74-50.84,4.85-5.5,10.4-10.25,16.6-15.25Z"/>
  <path class="cls-1" d="M176.48,130.64c-2.84,12.95-7,24.84-14.44,35.37-4.06,5.74-8.91,10.67-15.35,13.75-9.21,4.4-17.89,3.17-25.96-2.82-6.03-4.47-10.1-10.53-13.3-17.2-5.27-10.98-7.76-22.66-8.77-34.73-1.47-17.61.36-34.84,5.79-51.67,2.43-7.54,5.69-14.7,10.16-21.27,4.34-6.37,9.55-11.82,16.66-15.17,1.53-.72,3.07-1.43,4.84-1.28.36.03.77.01,1.1-.11,5.15-1.97,10-.63,14.68,1.52,5.43,2.5,9.52,6.62,12.97,11.41,5.06,7.02,8.25,14.9,10.5,23.2.14.51.41,1.05.04,1.75-3.79-.58-5.76,1.81-7.3,4.81-1.64,3.21-2.5,6.67-3.06,10.21-1.74,10.88-1.54,21.69,1.37,32.37.57,2.09,1.35,4.11,2.46,5.97,1.62,2.74,3.68,4.79,7.64,3.9Z"/>
  <path class="cls-1" d="M292.89,85.75c-3.76-.49-5.76,1.84-7.29,4.85-1.94,3.82-2.81,7.95-3.37,12.15-1.4,10.43-1.09,20.77,1.84,30.95.55,1.9,1.29,3.73,2.29,5.43,1.61,2.73,3.66,4.79,7.27,3.99.05.44.15.72.1.97-2.65,12.31-6.88,23.97-14.19,34.35-3.04,4.33-6.65,8.11-10.99,11.19-10.05,7.14-21.67,6.79-31.22-.99-5.43-4.42-9.27-10.04-12.28-16.27-5.17-10.7-7.69-22.08-8.77-33.86-1.51-16.63-.09-32.97,4.52-49.02,2.39-8.34,5.69-16.29,10.39-23.61,3.58-5.57,7.79-10.59,13.42-14.22,3.08-1.99,6.36-3.18,10.06-3.93,3.86-.78,7.41-.77,11.04.27,5.7,1.62,10.17,5.13,14.01,9.51,4.19,4.78,7.25,10.25,9.63,16.11,1.34,3.3,2.64,6.62,3.43,10.11.14.62.5,1.22.11,2.02Z"/>
  <path class="cls-1" d="M176.09,269.45c7.44-.1,16.24-.63,25-1.75,8.49-1.08,16.89-2.6,25.12-4.91,9.14-2.57,18.11-5.58,26.16-10.8,3.22-2.09,3.2-2.08,1.53-5.4-.93-1.84-1.84-3.7-2.65-5.59-.67-1.56-.67-3.14.54-4.49,1.36-1.52,3.79-1.45,5.26.12.78.83,1.24,1.87,1.71,2.9.85,1.88,1.64,3.79,2.62,5.6,2.07,3.82,5.25,6.01,9.67,6.26.37.02.75.04,1.12.12,1.8.39,2.88,1.62,2.91,3.29.03,1.46-.99,2.8-2.58,3.31-1.39.45-2.8.24-4.18-.05-2.22-.46-4.34-1.2-6.29-2.38-.83-.5-1.45-.55-2.2.23-1.24,1.29-2.77,2.25-4.36,3.04-1.08.54-1.41,1.28-1.29,2.48,1.25,12.54-3.89,22.47-12.88,30.69-8.38,7.66-18.41,12.17-29.38,14.67-16.55,3.77-32.82,2.9-48.65-3.45-9.22-3.7-17.19-9.19-23.02-17.42-2.63-3.72-4.56-7.76-5.49-12.23-.27-1.31-.78-2.14-2.16-2.58-2.05-.65-4.06-1.48-5.99-2.43-1.25-.61-1.99-.52-2.81.64-1.75,2.47-4.06,4.41-6.27,6.44-.55.51-1.14.99-1.78,1.37-1.63.98-3.5.79-4.65-.42-1.26-1.32-1.33-3.24-.11-4.89.44-.6.99-1.12,1.53-1.64,1.08-1.04,2.18-2.06,3.28-3.09,5.24-4.92,6.73-11.04,5.74-17.96-.09-.65-.19-1.31-.12-1.95.15-1.54,1.18-2.73,2.52-3.04,1.4-.33,2.71.24,3.63,1.55.72,1.03.99,2.2,1.08,3.44.26,3.38.34,6.76-.47,10.07-.34,1.39.16,2.02,1.36,2.59,5.99,2.85,12.34,4.43,18.83,5.56,8.71,1.52,17.51,2.04,27.73,2.09Z"/>
  <path class="cls-1" d="M192.82,217.86c.25-.01.62-.06.99-.04,1.6.07,2.74.92,3.16,2.31.43,1.45-.18,3.02-1.65,3.81-1.61.86-3.37,1.07-5.19.82-5.66-.78-9.65-4.02-12.36-8.8-3.9-6.88-4.25-13.99.05-20.8,4-6.34,10.1-8.89,17.42-7.73,7.81,1.23,13.55,5.63,17.15,12.71.55,1.09.99,2.24,1.05,3.48.09,1.83-1,3.4-2.64,3.88-1.65.49-3.35-.24-4.25-1.91-.4-.74-.63-1.57-1.01-2.32-2.36-4.67-6.17-7.53-11.26-8.44-5.79-1.03-10.63,2.44-11.67,8.31-.86,4.81.38,9.11,3.97,12.57,1.69,1.63,3.67,2.59,6.24,2.15Z"/>
  <path class="cls-3" d="M76.01,194.07c1.89.04,3.47,1.6,3.41,3.36-.06,1.82-1.78,3.31-3.83,3.31-1.92,0-3.41-1.48-3.37-3.35.04-1.84,1.78-3.37,3.79-3.33Z"/>
  <path class="cls-4" d="M315.27,206.93c-.04,1.78-1.45,3.18-3.22,3.18-1.93,0-3.77-1.89-3.7-3.81.07-1.76,1.54-3.21,3.24-3.2,1.94.01,3.73,1.87,3.68,3.83Z"/>
  <path class="cls-4" d="M94.81,218.52c.02,2.07-1.7,3.88-3.63,3.82-1.71-.05-3.16-1.54-3.17-3.27-.01-1.96,1.54-3.72,3.36-3.81,1.86-.09,3.43,1.39,3.44,3.25Z"/>
  <path class="cls-4" d="M305.4,237.02c-1.75-.07-3.21-1.58-3.17-3.3.04-1.78,1.48-3.12,3.32-3.11,1.8.01,3.17,1.44,3.14,3.26-.03,1.74-1.57,3.21-3.29,3.14Z"/>
  <path class="cls-5" d="M102.45,193.68c-1.78-.05-3.18-1.53-3.13-3.3.06-1.74,1.59-3.16,3.35-3.1,1.77.06,3.15,1.53,3.12,3.32-.04,1.76-1.52,3.13-3.34,3.08Z"/>
  <path class="cls-3" d="M294.5,208.38c-.05,1.75-1.57,3.22-3.29,3.17-1.75-.05-3.15-1.53-3.14-3.32,0-1.78,1.41-3.11,3.29-3.1,1.79,0,3.19,1.45,3.14,3.25Z"/>
  <path class="cls-2" d="M246.79,263.82c.33,4.04-.44,7.67-1.98,11.14-4.28,9.61-12.06,15.48-21.18,19.95-.78-.8-.52-1.57-.47-2.27.11-1.7-.06-3.37-.38-5.04-1.13-5.98-5.64-9.18-11.66-8.27-3.12.48-5.93,1.74-8.44,3.63-1.04.79-1.84,1.07-3.21.42-4.2-2.02-8.24-1.23-11.91,1.46-4.33,3.18-6.53,7.63-7.27,12.86-.38,2.71-.35,2.76-2.81,2.21-9.48-2.1-18.27-5.65-25.63-12.19-4.13-3.67-7.36-7.97-9.14-13.56,35.68,5.72,70.32,2.52,104.09-10.35Z"/>
</svg>